<svg xmlns="http://www.w3.org/2000/svg" width="32" height="32" viewBox="0 0 8.467 8.467" id="swimming-pool"><g transform="translate(418.873 -178.972)"><path style="line-height:normal;font-variant-ligatures:normal;font-variant-position:normal;font-variant-caps:normal;font-variant-numeric:normal;font-variant-alternates:normal;font-feature-settings:normal;text-indent:0;text-align:start;text-decoration-line:none;text-decoration-style:solid;text-decoration-color:#000;text-transform:none;text-orientation:mixed;shape-padding:0;isolation:auto;mix-blend-mode:normal" d="M-416.68981 180.16275c-.58282 0-1.05837.47561-1.05837 1.05848a.13278567.13280113 0 1 0 .26557 0c0-.4399.35294-.79289.7928-.79289.43984 0 .79473.35299.79473.79289v3.17544a.13227567.13229107 0 1 0 .26362 0v-3.17544c0-.58287-.47555-1.05848-1.05835-1.05848zM-414.04392 180.16275c-.5828 0-1.05836.47561-1.05836 1.05848a.13278067.13279613 0 1 0 .26556 0c0-.4399.35297-.79289.7928-.79289.43985 0 .79279.35299.7928.79289v3.17544a.13278067.13279613 0 1 0 .26556 0v-3.17544c-.00001-.58287-.47555-1.05848-1.05836-1.05848z" color="#000" font-family="sans-serif" font-weight="400" overflow="visible"></path><path style="line-height:normal;font-variant-ligatures:normal;font-variant-position:normal;font-variant-caps:normal;font-variant-numeric:normal;font-variant-alternates:normal;font-feature-settings:normal;text-indent:0;text-align:start;text-decoration-line:none;text-decoration-style:solid;text-decoration-color:#000;text-transform:none;text-orientation:mixed;shape-padding:0;isolation:auto;mix-blend-mode:normal" d="M-418.14262 181.22123a.13278567.13280113 0 1 0 0 .2656h1.71837a.13278567.13280113 0 1 0 0-.2656zM-415.10228 181.22123a.13278567.13280113 0 1 0 0 .2656h3.96397a.13278567.13280113 0 1 0 0-.2656zM-415.76424 182.01606v.26366h2.64589v-.26366zM-415.76424 182.80895v.2656h2.64589v-.2656zM-415.76424 183.60184v.2656h2.64589v-.2656zM-418.15434 182.01606a.13227567.13229107 0 0 0 .0137.26366h1.71641a.13227567.13229107 0 1 0 0-.26366h-1.71641a.13227567.13229107 0 0 0-.0137 0zM-412.47004 182.01606a.13227568.13229108 0 0 0 .0137.26366h1.32199a.13227568.13229108 0 1 0 0-.26366h-1.32199a.13227568.13229108 0 0 0-.0137 0z" color="#000" font-family="sans-serif" font-weight="400" overflow="visible"></path><path fill-rule="evenodd" style="line-height:normal;font-variant-ligatures:normal;font-variant-position:normal;font-variant-caps:normal;font-variant-numeric:normal;font-variant-alternates:normal;font-feature-settings:normal;text-indent:0;text-align:start;text-decoration-line:none;text-decoration-style:solid;text-decoration-color:#000;text-transform:none;text-orientation:mixed;shape-padding:0;isolation:auto;mix-blend-mode:normal" d="M-418.23049 184.59587a.13227565.13229105 0 0 0-.0449.24608c0 0 .11892.0697.27142.13865.15252.069.33478.14249.51161.14257.1763.00008.31177-.0829.42374-.14843.11196-.0655.20164-.11326.29096-.11326.0893 0 .17704.0478.28899.11326.11195.0655.24747.14843.42373.14843.17625 0 .31178-.083.42374-.14843.11195-.0655.19967-.11326.289-.11326.0894 0 .17899.0478.29095.11326.11194.0655.24747.14843.42373.14843.17627 0 .30983-.083.42179-.14843.11196-.0655.2016-.11326.29094-.11326.0894 0 .17704.0478.289.11326.11196.0655.24748.14843.42373.14843.17626 0 .31179-.083.42374-.14843.11196-.0655.20163-.11326.29096-.11326.0893 0 .17704.0478.28899.11326.11196.0655.24748.14843.42374.14843.17658.0001.35904-.074.51161-.14257.15255-.0686.27141-.1367.27141-.1367a.13262111.13263655 0 1 0-.13473-.2285c0 0-.10529.0626-.24409.12499-.1388.0624-.31445.11919-.4042.11914-.0893 0-.179-.0478-.29096-.11328-.11195-.0655-.24552-.14842-.42177-.14842-.17626 0-.31179.083-.42374.14842-.11196.0655-.20163.11327-.29096.11328-.0893 0-.17704-.0478-.28899-.11328-.11196-.0655-.24748-.14842-.42374-.14842-.17626 0-.31178.083-.42374.14842-.11195.0655-.19965.11327-.28899.11328-.0893 0-.17899-.0478-.29095-.11328-.11197-.0655-.24747-.14842-.42373-.14842-.17627 0-.31178.083-.42374.14842-.11196.0655-.19968.11327-.289.11328-.0893 0-.179-.0478-.29095-.11328-.11196-.0655-.24552-.14842-.42177-.14842-.17629 0-.3118.083-.42374.14842-.11195.0655-.20166.11332-.29096.11328-.0898-.00004-.26354-.0583-.40225-.12109-.13872-.0628-.24604-.12499-.24603-.12499a.13227565.13229105 0 0 0-.0899-.0176zM-418.21683 185.71881a.13227565.13229105 0 0 0-.0586.24802c0 0 .11892.0697.27142.13866.15252.069.33478.14248.51161.14256.1763.00008.31177-.083.42374-.14842.11196-.0655.20164-.11327.29096-.11327.0893 0 .17704.0478.28899.11327.11195.0655.24747.14842.42373.14842.17625 0 .31178-.083.42374-.14842.11195-.0655.19967-.11327.289-.11327.0894 0 .17899.0478.29095.11327.11194.0655.24747.14842.42373.14842.17627 0 .30983-.083.42179-.14842.11196-.0655.2016-.11327.29094-.11327.0894 0 .17704.0478.289.11327.11196.0655.24748.14842.42373.14842.17626 0 .31179-.083.42374-.14842.11196-.0655.20163-.11327.29096-.11327.0893 0 .17704.0478.28899.11327.11196.0655.24748.14842.42374.14842.17658.0001.35904-.074.51161-.14256.15255-.0686.27141-.13671.27141-.13671a.13262111.13263655 0 1 0-.13473-.2285c0 0-.10529.0626-.24409.12499-.1388.0624-.31445.11919-.4042.11914-.0893 0-.179-.0478-.29096-.11328-.11195-.0655-.24552-.14841-.42177-.14841-.17626 0-.31179.083-.42374.14841-.11196.0655-.20163.11328-.29096.11328-.0893 0-.17704-.0478-.28899-.11328-.11196-.0655-.24748-.14841-.42374-.14841-.17626 0-.31178.083-.42374.14841-.11195.0655-.19965.11327-.28899.11328-.0893 0-.17899-.0478-.29095-.11328-.11197-.0655-.24747-.14841-.42373-.14841-.17627 0-.31178.083-.42374.14841-.11196.0655-.19968.11327-.289.11328-.0893 0-.179-.0478-.29095-.11328-.11196-.0655-.24552-.14841-.42177-.14841-.17629 0-.3118.083-.42374.14841-.11196.0655-.20166.11332-.29096.11328-.0898-.00004-.26354-.0583-.40225-.12109-.13872-.0628-.24603-.12499-.24603-.12499a.13227565.13229105 0 0 0-.0762-.0195zM-412.49738 183.47295c-.0882 0-.16878.0217-.23824.0508a.13227565.13229105 0 1 0 .10154.24411c.0477-.02.0921-.0293.1367-.0293.0893 0 .17704.0459.28899.11132.11196.0655.24748.15038.42374.15038.17658.00011.35904-.074.51161-.14257.15255-.0686.27141-.13866.27141-.13866a.13262094.13263638 0 1 0-.13473-.22849c0 0-.10529.0626-.24409.12499-.1388.0624-.31445.11918-.4042.11913-.0893 0-.179-.0478-.29096-.11328-.11195-.0655-.24552-.14841-.42177-.14841zM-418.21683 183.47099a.13227565.13229105 0 0 0-.0586.24607c0 0 .11892.0697.27142.13866.15252.069.33478.14445.51161.14452.1763.00009.31177-.0849.42374-.15038.11196-.0655.20164-.11132.29096-.11132.0894 0 .17706.0458.28899.11132a.13227565.13229105 0 1 0 .13278-.2285c-.11198-.0655-.24553-.14841-.42177-.14841-.17629 0-.3118.083-.42374.14841-.11195.0655-.20166.11332-.29096.11328-.0898-.00004-.26354-.0564-.40225-.11913-.13872-.0628-.24603-.12499-.24603-.12499a.13227565.13229105 0 0 0-.0762-.0195z" color="#000" font-family="sans-serif" font-weight="400" overflow="visible"></path></g></svg>