<svg xmlns="http://www.w3.org/2000/svg" enable-background="new 0 0 52 52" viewBox="0 0 52 52" id="kid"><path fill="none" stroke="#000" stroke-linecap="round" stroke-linejoin="round" stroke-width="2" d="M47.8,22.5c-0.7,0.1-1.4,0.5-1.7,1.2C44.3,14,36.2,6.7,26.5,6.7S8.7,14,6.9,23.7c-0.3-0.7-1-1.1-1.7-1.2
		c-1.5,0-2.7,2.4-2.7,5.4s1.2,5.4,2.7,5.4c0.7-0.1,1.4-0.5,1.7-1.2c1.8,9.8,9.9,17.1,19.6,17.1s17.8-7.3,19.6-17.1
		c0.3,0.7,0.9,1.1,1.7,1.2c1.5,0,2.7-2.4,2.7-5.4S49.3,22.5,47.8,22.5z"></path><path fill="none" stroke="#000" stroke-linecap="round" stroke-linejoin="round" stroke-width="2" d="M26 6.7c0 0 3.9 2.9 4.3 7.5v.5c-.2 2.3-2.2 4-4.5 3.9-2.1-.1-3.7-1.8-3.9-3.9 0-1.1.4-2.1 1.2-2.8M21.3 35.3c3.3 1.5 7.1 1.5 10.5 0"></path><path fill="none" stroke="#000" stroke-linecap="round" stroke-linejoin="round" stroke-width="2" d="M26.5,36.4c-1.9,0-3.6,1.5-3.6,3.5c0,1.9,1.5,3.6,3.5,3.6s3.6-1.5,3.6-3.5c0,0,0,0,0-0.1
		C30,38,28.4,36.4,26.5,36.4z"></path><line x1="32.6" x2="34" y1="26.2" y2="26.2" fill="none" stroke="#000" stroke-linecap="round" stroke-linejoin="round" stroke-width="2"></line><line x1="19" x2="20.5" y1="26.2" y2="26.2" fill="none" stroke="#000" stroke-linecap="round" stroke-linejoin="round" stroke-width="2"></line><path fill="none" stroke="#000" stroke-linecap="round" stroke-linejoin="round" stroke-width="2" d="M32.6,7.6c2.2,2.2,3,5.4,2,8.4"></path></svg>