<svg xmlns="http://www.w3.org/2000/svg" width="48" height="48" viewBox="0 0 48 48" id="kitchen"><path fill-rule="evenodd" d="M16 31v-2H5v2h11zm0 2H5v10h11V33zm13-2v-2H18v2h11zm0 2H18v10h11V33zM5.535 27a4.002 4.002 0 0 1 5.965-5.123A4 4 0 0 1 17.465 27H44a1 1 0 0 1 1 1v16a1 1 0 0 1-1 1H4a1 1 0 0 1-1-1V28a1 1 0 0 1 1-1h1.535zM31 29v14h12V29H31zM7.586 23.586a2 2 0 0 0 2.713 2.935c-.399-.973-.399-2.07 0-3.042a2 2 0 0 0-2.713.107zm5 2.828a2 2 0 1 0 2.828-2.828 2 2 0 0 0-2.828 2.828zM34 34h6a1 1 0 0 1 1 1v5a1 1 0 0 1-1 1h-6a1 1 0 0 1-1-1v-5a1 1 0 0 1 1-1zm1 2v3h4v-3h-4zm-1-4a1 1 0 0 1 0-2h6a1 1 0 0 1 0 2h-6zm-1-6a1 1 0 0 1 0-2h2a1 1 0 0 1 0 2h-2zm6 0a1 1 0 0 1 0-2h2a1 1 0 0 1 0 2h-2zM13 37a1 1 0 1 1 0-2 1 1 0 0 1 0 2zm8 0a1 1 0 1 1 0-2 1 1 0 0 1 0 2zM4 3h22a1 1 0 0 1 1 1v12a1 1 0 0 1-1 1H4a1 1 0 0 1-1-1V4a1 1 0 0 1 1-1zm1 2v10h9V5H5zm11 0v10h9V5h-9zm-5 8a1 1 0 1 1 0-2 1 1 0 0 1 0 2zm8 0a1 1 0 1 1 0-2 1 1 0 0 1 0 2zm15-4.48V4a1 1 0 0 1 1-1h4a1 1 0 0 1 1 1v4.52l4.625 3.7A1 1 0 0 1 45 13v3a1 1 0 0 1-1 1H30a1 1 0 0 1-1-1v-3a1 1 0 0 1 .375-.78L34 8.52zM36 5v4a1 1 0 0 1-.375.78L31 13.48V15h12v-1.52l-4.625-3.7A1 1 0 0 1 38 9V5h-2zm0 9a1 1 0 0 1 0-2h2a1 1 0 0 1 0 2h-2z"></path></svg>